<svg width="87" height="75" viewBox="0 0 87 75" fill="none" xmlns="http://www.w3.org/2000/svg">
<g clip-path="url(#clip0_1_499)">
<path d="M17.751 69.1172L19.7492 64.0399L21.729 69.1158L17.751 69.1172ZM21.3441 61.9713C21.1974 61.6192 20.9831 61.3446 20.6869 61.1949C20.4145 61.0669 20.116 61.0015 19.814 61.0036C19.3896 61.0036 18.975 61.0868 18.6577 61.1963C18.5848 61.2278 18.5271 61.286 18.497 61.3585L13.2935 74.1375C13.2756 74.1805 13.2687 74.2272 13.2736 74.2734C13.2785 74.3196 13.2949 74.3639 13.3215 74.4024C13.348 74.4408 13.3838 74.4722 13.4257 74.4937C13.4675 74.5152 13.5142 74.5263 13.5614 74.5257H15.4651C15.5836 74.5257 15.6879 74.4564 15.733 74.3455L17.0515 71.0596H22.4496L23.8146 74.3497C23.8361 74.4013 23.8725 74.4456 23.9194 74.4769C23.9663 74.5082 24.0216 74.5252 24.0783 74.5257H26.0286C26.0763 74.5261 26.1232 74.5146 26.1652 74.4923C26.2071 74.47 26.2426 74.4376 26.2683 74.3982C26.2937 74.36 26.3091 74.3162 26.313 74.2707C26.3169 74.2252 26.3093 74.1794 26.2909 74.1375L21.3441 61.9713ZM74.3194 72.5098H69.1652V68.5335H73.737C73.775 68.5341 73.8128 68.5271 73.848 68.5127C73.8831 68.4984 73.915 68.4772 73.9414 68.4503C73.969 68.4234 73.9908 68.3915 74.0055 68.3562C74.0203 68.321 74.0278 68.2832 74.0274 68.2451V66.7616C74.0276 66.7243 74.0201 66.6874 74.0053 66.653C73.9905 66.6187 73.9688 66.5877 73.9414 66.5619C73.9147 66.5353 73.8829 66.5143 73.8477 66.5C73.8126 66.4857 73.775 66.4785 73.737 66.4787H69.1638V63.0777H74.0176C74.5534 63.0777 74.9779 62.9848 75.2543 62.6895C75.4933 62.4343 75.6218 62.0976 75.6125 61.7509V61.5498C75.6125 61.2226 75.4573 61.0604 75.2839 61.0604H67.0105C66.9356 61.0629 66.8643 61.0925 66.8103 61.1436C66.7563 61.1971 66.7259 61.2693 66.7257 61.3446V74.2429C66.7257 74.3192 66.7539 74.3871 66.8103 74.4467C66.8638 74.498 66.9358 74.5264 67.0105 74.5257H75.628C75.7022 74.5262 75.7737 74.4978 75.8268 74.4467C75.8539 74.4199 75.8754 74.3881 75.8899 74.3531C75.9044 74.3182 75.9117 74.2807 75.9114 74.2429V73.8353C75.9197 73.6604 75.8903 73.4858 75.8251 73.3228C75.76 73.1599 75.6606 73.0123 75.5335 72.8897C75.2416 72.6097 74.8242 72.5098 74.3179 72.5098M62.7335 72.5098H57.5794V68.5335H62.1553C62.1928 68.5341 62.2299 68.5271 62.2644 68.5127C62.2989 68.4984 62.33 68.4771 62.3556 68.4503C62.3838 68.4239 62.4061 68.3921 62.4209 68.3567C62.4357 68.3213 62.4428 68.2833 62.4416 68.2451V66.7616C62.4416 66.6867 62.4134 66.609 62.3556 66.5619C62.3296 66.5356 62.2984 66.5147 62.264 66.5004C62.2296 66.4861 62.1927 66.4787 62.1553 66.4787H57.5794V63.0777H62.4303C62.9662 63.0777 63.3892 62.9848 63.6684 62.6895C63.9095 62.4356 64.0384 62.098 64.0266 61.7509V61.5498C64.0266 61.2268 63.8673 61.0604 63.6924 61.0604H55.4261C55.3503 61.0628 55.2781 61.0924 55.223 61.1436C55.1689 61.1971 55.1381 61.2692 55.137 61.3446V74.2429C55.1388 74.319 55.1695 74.3917 55.223 74.4467C55.2777 74.498 55.3505 74.5264 55.4261 74.5257H64.0435C64.0801 74.5262 64.1165 74.5194 64.1504 74.5058C64.1843 74.4922 64.2151 74.4722 64.241 74.4467C64.294 74.3912 64.3255 74.319 64.3298 74.2429V73.8353C64.3342 73.6604 64.3025 73.4864 64.2366 73.3239C64.1707 73.1613 64.0719 73.0136 63.9462 72.8897C63.6558 72.6097 63.2412 72.5098 62.7335 72.5098ZM10.8229 61.2753C10.6736 61.1726 10.5055 61.0991 10.3279 61.059C10.1719 61.0218 10.0119 61.0032 9.85129 61.0036C9.37325 61.0036 9.04891 61.0161 9.04891 61.3502V70.7781L2.63271 61.7592C2.48419 61.5223 2.2789 61.3247 2.0348 61.1838C1.7852 61.0507 1.49894 61.0036 1.15486 61.0036C0.695153 61.0036 0.346845 61.0798 0.236853 61.1131C0.177503 61.1316 0.125815 61.1685 0.0894817 61.2182C0.0531481 61.2679 0.0341101 61.3278 0.0352006 61.389V74.2415C0.0352006 74.3192 0.0634037 74.3871 0.114169 74.4467C0.141279 74.4725 0.173298 74.4927 0.208387 74.5063C0.243477 74.5199 0.280945 74.5265 0.318642 74.5257H2.05595C2.13103 74.526 2.2033 74.4977 2.25761 74.4467C2.30901 74.3906 2.33849 74.3184 2.3408 74.2429V65.1186L9.10391 74.4107C9.13164 74.4466 9.16747 74.4757 9.20858 74.4956C9.24969 74.5156 9.29496 74.5259 9.34081 74.5257H11.0753C11.1515 74.5255 11.225 74.4974 11.2812 74.4467C11.3301 74.3893 11.3588 74.3178 11.363 74.2429V62.5037C11.363 62.2167 11.3179 61.9672 11.2121 61.7495C11.1256 61.561 10.9917 61.3987 10.8229 61.2753ZM39.0401 73.9753L33.2585 67.3175L38.6185 61.9325C38.6491 61.9029 38.6724 61.8667 38.6863 61.8268C38.7003 61.7868 38.7045 61.7442 38.6988 61.7024C38.6951 61.6587 38.6812 61.6165 38.6582 61.579C38.6352 61.5415 38.6038 61.5097 38.5663 61.4861C38.2871 61.342 37.9961 61.2214 37.6962 61.1256C37.5279 61.0705 37.3518 61.0415 37.1745 61.0396C36.9178 61.0396 36.6724 61.0951 36.4553 61.2088C36.2353 61.3155 36.0181 61.4888 35.7742 61.7162L30.7554 66.7629V62.5148C30.7554 62.2098 30.7089 61.9464 30.6003 61.7162C30.5073 61.5169 30.3635 61.3445 30.1829 61.2157C30.0254 61.1066 29.8484 61.0276 29.6611 60.9828C29.4977 60.9467 29.3308 60.9281 29.1634 60.9273C28.6529 60.9273 28.3144 60.9426 28.3144 61.2947V74.2429C28.3137 74.2805 28.3207 74.3179 28.335 74.3527C28.3494 74.3876 28.3708 74.4192 28.398 74.4456C28.4251 74.4721 28.4575 74.4928 28.4931 74.5066C28.5287 74.5204 28.5667 74.5269 28.6049 74.5257H30.4663C30.5038 74.5265 30.5411 74.5199 30.576 74.5063C30.6108 74.4928 30.6426 74.4725 30.6694 74.4467C30.7216 74.3909 30.7521 74.3187 30.7554 74.2429V68.0135L35.8447 73.8713C36.0759 74.1403 36.3326 74.34 36.6062 74.4814C36.8952 74.62 37.2436 74.6824 37.6469 74.6824C38.1475 74.6824 38.7369 74.505 38.9216 74.4329C38.9664 74.4173 39.0063 74.3906 39.0374 74.3553C39.0685 74.3201 39.0899 74.2776 39.0993 74.2318C39.1112 74.1875 39.112 74.1411 39.1017 74.0964C39.0914 74.0518 39.0702 74.0102 39.0401 73.9753ZM52.548 62.5148C52.548 62.2098 52.5014 61.9464 52.3928 61.7162C52.3009 61.517 52.1581 61.3446 51.9783 61.2157C51.8193 61.1072 51.6415 61.0283 51.4537 60.9828C51.2902 60.9469 51.1234 60.9283 50.9559 60.9273C50.4497 60.9273 50.1098 60.9426 50.1098 61.2947V66.512H43.8685V62.5148C43.8685 62.2098 43.8262 61.9464 43.7162 61.7162C43.6228 61.5187 43.4814 61.3467 43.3044 61.2157C43.1442 61.1068 42.9649 61.0278 42.7756 60.9828C42.6136 60.9467 42.4481 60.9281 42.282 60.9273C41.7744 60.9273 41.4331 60.9426 41.4331 61.2947V74.2429C41.4331 74.3192 41.4613 74.3871 41.5177 74.4467C41.5708 74.4969 41.6415 74.5252 41.7152 74.5257H43.5836C43.6203 74.5265 43.6567 74.5198 43.6906 74.5063C43.7246 74.4927 43.7553 74.4724 43.781 74.4467C43.8351 74.3919 43.8663 74.3192 43.8685 74.2429V68.5515H50.1098V74.2429C50.1098 74.3192 50.1394 74.3871 50.1888 74.4467C50.2452 74.4994 50.3227 74.5257 50.3947 74.5257H52.2603C52.2971 74.5263 52.3337 74.5195 52.3678 74.506C52.402 74.4924 52.433 74.4723 52.4591 74.4467C52.4871 74.4203 52.5093 74.3887 52.5246 74.3537C52.5399 74.3187 52.5478 74.281 52.548 74.2429V62.5148ZM86.6103 72.8717C86.3169 72.5958 85.908 72.489 85.4145 72.489H80.7327V62.4982C80.7327 62.1932 80.6876 61.9297 80.5748 61.7024C80.4852 61.5005 80.3414 61.3266 80.1588 61.1991C80.0025 61.089 79.8257 61.0103 79.6385 60.9675C79.4741 60.9313 79.3063 60.9122 79.1378 60.9107C78.6316 60.9107 78.2889 60.9245 78.2889 61.2781V74.2415C78.2889 74.3192 78.327 74.394 78.3764 74.4467C78.432 74.4982 78.5058 74.5265 78.5822 74.5257H86.6794C86.7554 74.5266 86.8287 74.4982 86.8838 74.4467C86.935 74.3906 86.9641 74.3183 86.9656 74.2429V73.7992C86.973 73.6291 86.9453 73.4592 86.8842 73.2998C86.8232 73.1404 86.73 72.9948 86.6103 72.8717ZM41.6023 32.5839C41.608 32.5866 41.608 32.5922 41.6122 32.5922C41.6193 32.5922 41.6193 32.588 41.6235 32.5852M51.3282 16.842C47.9678 15.8853 47.3304 18.0551 46.8693 19.6398C46.8693 19.6398 46.8665 19.6454 46.8693 19.6468C46.8693 19.6495 46.8721 19.6509 46.8763 19.6509C50.7641 19.6468 48.5121 16.8919 51.3239 16.8572H51.3282C51.3324 16.8572 51.3324 16.8517 51.3324 16.8489C51.3366 16.8433 51.3324 16.842 51.3282 16.842ZM45.9795 6.53637C45.9795 6.52944 45.9724 6.52944 45.9668 6.5336C45.9625 6.5336 45.9583 6.54053 45.9625 6.54469V6.55024C48.3612 12.2736 39.8213 14.582 34.4768 16.842H34.4726C27.1299 19.5622 21.3074 26.2103 20.8082 34.2185C20.6385 38.8533 22.0865 43.4057 24.9117 47.1195C24.916 47.1237 24.9188 47.1237 24.9244 47.1223C24.9301 47.1209 24.9329 47.1126 24.9301 47.1057C22.8157 43.894 21.7586 40.12 21.9025 36.2968C22.2057 27.7271 27.2864 21.8845 37.4565 18.3477C44.6299 15.8534 47.9932 14.4406 48.1144 11.181C48.1793 9.28989 46.2939 6.91765 45.9795 6.53637ZM47.6998 46.0423L47.6956 46.0353C47.6914 46.0339 47.6857 46.0353 47.6815 46.0381V46.0423C46.1614 48.4672 42.337 49.1854 39.6972 47.5355H39.6831C39.6817 47.5396 39.6789 47.5466 39.6817 47.5493C41.9986 52.3812 48.0834 49.4003 47.6998 46.0423Z" fill="#232323"/>
<path d="M42.1415 2.47529C42.1373 2.47113 42.133 2.47113 42.1288 2.47529C42.1276 2.47605 42.1267 2.47708 42.126 2.47829C42.1254 2.4795 42.125 2.48085 42.125 2.48222C42.125 2.48359 42.1254 2.48494 42.126 2.48615C42.1267 2.48736 42.1276 2.48839 42.1288 2.48915C46.4989 7.75771 34.4138 14.2464 30.5218 17.3243C30.5176 17.3285 30.5176 17.3354 30.5176 17.3382C30.5218 17.3451 30.5317 17.3451 30.5359 17.3451C31.0196 17.1344 34.9116 15.0963 38.4807 13.5878C40.4761 12.7559 44.7221 10.5708 44.7714 7.11855C45.0873 4.81148 42.6012 2.81913 42.1415 2.47529Z" fill="#232323"/>
<path d="M38.3985 0.323534C38.3943 0.317989 38.3901 0.322148 38.3901 0.324921C38.3859 0.326307 38.3859 0.330467 38.3901 0.336013C42.0438 5.36887 35.8687 11.0062 34.8097 11.9379C34.8097 11.9379 34.7984 11.949 34.8097 11.9587C34.8125 11.9657 34.8224 11.9657 34.8266 11.9587C35.3343 11.6163 35.8307 11.2627 36.3172 10.9189C43.0295 6.10786 42.0579 1.92074 38.3985 0.323534ZM56.7024 24.4119C53.3462 23.4553 52.7046 25.6279 52.2449 27.2084V27.2168C52.2449 27.2209 52.2491 27.2223 52.2533 27.2223C56.1397 27.2168 53.8849 24.4646 56.7024 24.4272V24.4286C56.7066 24.4286 56.7094 24.4272 56.7094 24.4216C56.7094 24.4189 56.7066 24.4119 56.7024 24.4119Z" fill="#232323"/>
<path d="M60.7278 42.6521C60.725 42.6479 60.7165 42.6521 60.7165 42.6535C56.8908 48.5598 49.8922 52.6402 41.0265 51.9636C33.1762 51.3716 26.1917 44.9328 26.3722 36.8234C26.4991 31.0349 28.7723 28.3369 30.284 27.1181C29.5422 28.5448 26.4131 36.3035 31.7068 41.9173C35.3887 45.8202 41.4538 45.4486 44.3615 43.3093H44.3644C45.7096 43.7571 47.062 44.0275 48.6315 44.0857C54.8531 44.2964 59.9184 40.8303 60.0819 36.3465C60.2639 31.1777 55.0463 27.7226 48.7753 27.5064C47.6771 27.4669 46.5778 27.5408 45.4953 27.7268C47.6782 22.8936 52.226 22.5151 53.5572 22.6108C58.1077 22.931 60.0396 25.8565 60.6023 26.9393V26.9435C60.6065 26.9504 60.6108 26.9518 60.6164 26.9504C60.6249 26.9462 60.6249 26.9393 60.6249 26.9351C59.2274 23.4912 55.7669 20.9844 51.6351 20.8416C46.1256 20.6545 41.5074 24.7376 41.3241 29.9646C41.2902 30.8727 41.3946 31.7531 41.6131 32.5919C41.6131 32.5988 41.6174 32.6002 41.6202 32.6016C41.6287 32.6016 41.6315 32.5988 41.6315 32.5933C41.7804 32.3679 41.9414 32.1503 42.1137 31.9417C43.5394 30.3056 45.9141 29.3587 48.5694 29.4488C52.7816 29.5944 56.3577 32.42 56.2322 35.9069C56.1095 39.3953 52.3331 42.1003 48.1224 41.9533C42.9627 41.7772 38.2584 36.9662 38.4332 32.0054C38.4765 30.8156 38.7333 29.6426 39.1919 28.5407C39.1961 28.5365 39.1919 28.5337 39.1891 28.5296C39.1849 28.5296 39.1806 28.5296 39.1778 28.5337C37.6337 30.0616 36.6889 31.9652 36.617 34.056C36.5084 37.0605 38.783 40.6791 42.4959 42.5398C39.3245 43.8597 31.2161 41.2226 31.5136 32.8526C31.7251 26.9116 35.3915 21.3075 40.5104 20.1526C40.5146 20.1526 40.5175 20.1456 40.5175 20.1415C40.5175 20.1373 40.509 20.1318 40.5062 20.1345C29.923 21.905 23.7338 28.4783 23.4123 37.3932C23.0809 46.7754 31.0906 54.9708 40.8108 55.3063C52.7491 55.7126 58.7437 47.7141 60.732 42.666H60.7363C60.7363 42.659 60.7363 42.6549 60.7278 42.6521Z" fill="#232323"/>
</g>
<defs>
<clipPath id="clip0_1_499">
<rect width="87" height="75" fill="white"/>
</clipPath>
</defs>
</svg>
