<svg width="141" height="29" viewBox="0 0 141 29" fill="none" xmlns="http://www.w3.org/2000/svg">
<g clip-path="url(#clip0_1_496)">
<path d="M20.4823 26.055L20.0637 28.9279H0.0429688C0.871355 26.9404 0.819036 25.8202 0.819036 24.3837V4.6348C0.819036 3.24352 0.871355 2.02389 0.0429688 0.0905594H6.04223H19.5754L19.6103 3.01766C19.2441 2.86408 18.9476 2.72857 18.6773 2.60209C17.9535 2.32202 17.038 2.06003 16.0875 2.06906C14.5702 2.06906 8.20475 2.06906 5.37952 2.06906V13.3619H17.9448L17.3257 15.5843H5.37952V26.8862C7.69028 26.8862 15.076 26.8862 16.7066 26.8862C18.6163 26.9223 20.5172 25.8021 20.5172 25.8021L20.4649 26.046C20.4649 26.055 20.4736 26.055 20.4823 26.055ZM50.6181 28.9279C50.8884 27.5096 50.8884 25.504 50.6704 23.8688L48.8916 10.2812L39.1777 28.9189H37.3291L27.4582 9.44103L25.5398 24.1669C25.3305 25.8653 25.2695 28.0155 25.4439 28.9279H21.9734C22.6448 27.4554 22.8105 26.8139 23.1244 24.3927L26.2636 0.0905594H27.8593L39.3782 22.7666L50.8884 0.0905594H52.0918L55.3355 24.3385C55.6582 26.7507 55.9023 27.4463 56.5476 28.9279H50.6181ZM79.8558 28.9279L75.2343 18.3669H65.9389L61.3784 28.9279H60.986H57.7684H57.7509C58.902 27.4463 59.2944 26.7597 60.1053 24.9167L70.883 0.0905594H72.0951L82.6984 24.2211C83.832 26.579 84.3639 27.3108 85.9858 28.9279H79.8558ZM108.936 28.9279L104.315 18.3669H95.0196L90.4591 28.9279H90.0754H86.8491H86.8316C87.9827 27.4463 88.3751 26.7597 89.186 24.9167L99.9638 0.0905594H101.176L111.788 24.2211C112.921 26.579 113.453 27.3108 115.075 28.9279H108.936ZM135.288 28.946C132.506 26.317 128.905 22.8298 124.397 17.3008C123.106 15.7379 122.199 15.5392 121.615 15.503V24.3837C121.615 25.8111 121.615 26.9404 122.4 28.9279H116.279C117.107 26.9404 117.055 25.8202 117.055 24.3837V4.61673C117.055 3.22545 117.107 2.00582 116.279 0.0724909H122.278C126.376 0.0724909 136.064 -0.306949 136.064 7.98651C136.064 12.3681 132.707 14.7261 128.765 15.3223L127.597 15.4398C127.597 15.4398 140.38 28.3859 140.93 28.946H135.288ZM128.042 13.6691L128.033 13.6781C130.614 12.6663 131.486 10.1276 131.399 7.97748C131.303 5.90863 130.405 1.40956 121.624 1.77093V14.0666C121.624 14.0666 126.542 14.3466 127.92 13.7233C127.998 13.6871 128.042 13.6691 128.042 13.6691ZM95.909 16.3522H103.417L99.6324 7.74258L95.909 16.3522ZM66.837 16.3522H74.3448L70.5604 7.74258L66.837 16.3522Z" fill="#232323"/>
</g>
<defs>
<clipPath id="clip0_1_496">
<rect width="141" height="29" fill="white"/>
</clipPath>
</defs>
</svg>
