<svg width="147" height="41" viewBox="0 0 147 41" fill="none" xmlns="http://www.w3.org/2000/svg">
<path d="M6.06155 2.45989C14.3259 2.43406 22.5926 2.46224 30.8593 2.4458C30.8521 3.57333 30.8641 4.70086 30.8545 5.83074C22.5878 5.82369 14.3234 5.84718 6.05914 5.81899C6.07118 4.69851 6.07118 3.58038 6.06155 2.45989ZM0.0140618 8.38568C1.15339 8.39273 2.29271 8.39743 3.43444 8.37864C3.45853 16.4663 3.44889 24.5532 3.43926 32.6409C2.29512 32.6291 1.15098 32.6268 0.00683594 32.6409C0.0140621 24.5555 -0.000390509 16.471 0.0140618 8.38568ZM33.4792 8.44598C34.6305 8.42953 35.7795 8.36924 36.9285 8.38568C36.9501 16.4687 36.9429 24.5532 36.9333 32.6362C35.7795 32.6338 34.6281 32.6291 33.4744 32.6315C33.5001 24.5696 33.4936 16.5078 33.4792 8.44598ZM137.839 12.0329C140.03 11.8004 142.392 11.9351 144.306 13.1096C145.326 13.7258 146.003 14.7437 146.399 15.8321C145.398 16.2431 144.401 16.6715 143.417 17.1178C142.917 15.9949 141.941 14.9888 140.645 14.8259C139.393 14.6842 138.013 14.6262 136.878 15.2393C135.746 15.7992 135.896 17.6526 137.043 18.1083C139.786 19.1544 143.199 18.6963 145.464 20.8214C146.956 22.2065 147 24.5939 146.01 26.2656C145.133 27.7839 143.403 28.6139 141.705 28.9318C140.37 29.1314 139.007 29.1244 137.67 28.9803C135.505 28.7196 133.424 27.632 132.154 25.8843C132.991 25.1639 133.818 24.431 134.592 23.648C135.653 25.1772 137.443 26.1865 139.348 26.221C140.521 26.2515 141.991 26.2327 142.714 25.1632C143.279 24.431 143.081 23.338 142.375 22.7687C141.684 22.2872 140.828 22.1408 140.01 21.999C138.103 21.66 136.091 21.4501 134.406 20.4346C132.371 19.2726 132.046 16.3919 133.238 14.544C134.217 13.0093 136.068 12.2561 137.839 12.0329ZM8.32414 12.3234C9.46828 12.307 10.6124 12.3258 11.7542 12.3093C11.7421 17.7747 11.7397 23.2393 11.7542 28.7047C10.61 28.6835 9.46587 28.6976 8.32173 28.6859C8.36187 23.233 8.35465 17.7771 8.32414 12.3234ZM16.7474 12.3117C17.906 12.3234 19.0622 12.3187 20.2208 12.3117C20.2063 17.7724 20.2015 23.233 20.2232 28.6929C19.0646 28.6906 17.906 28.6859 16.7474 28.7C16.7571 23.2377 16.7571 17.7747 16.7474 12.3117ZM25.2173 12.3093C26.359 12.3234 27.4983 12.3187 28.6401 12.3117C28.6377 17.7771 28.6352 23.2393 28.6425 28.7047C27.4959 28.6882 26.3518 28.6835 25.2076 28.6976C25.2317 23.2354 25.2125 17.7724 25.2173 12.3093ZM44.5368 12.3211C45.9194 12.3046 47.302 12.3493 48.6846 12.3023C50.284 16.4146 51.8737 20.534 53.3519 24.6879C55.0324 20.5873 56.5057 16.4052 58.1814 12.3023C59.5303 12.3375 60.8848 12.3258 62.236 12.314C62.224 17.7747 62.2144 23.2377 62.2409 28.7C61.1585 28.6882 60.0786 28.6835 58.9987 28.7047C59.1087 24.9807 59.0276 21.2544 59.0533 17.5304C57.58 21.2403 56.195 24.9854 54.7481 28.7047C53.8304 28.6882 52.9151 28.6835 51.9974 28.7C50.5795 24.9854 49.0467 21.31 47.75 17.5555C47.636 21.263 47.7211 24.9846 47.7123 28.6976C46.6492 28.6835 45.5886 28.6929 44.528 28.6859C44.5633 23.233 44.544 17.7771 44.5368 12.3211ZM65.5256 12.3258C69.5802 12.3164 73.6373 12.3305 77.692 12.3211C77.6727 13.2975 77.6727 14.2762 77.6872 15.255C74.7887 15.2644 71.8902 15.2503 68.9917 15.262C68.9989 16.4428 69.0061 17.6259 68.9893 18.8091C71.6854 18.8302 74.3832 18.8208 77.0794 18.8114C77.1011 19.7925 77.0914 20.776 77.0938 21.7586C74.3904 21.7516 71.6879 21.7399 68.9869 21.761C69.011 23.0976 68.9965 24.4318 68.9893 25.7684C71.9376 25.7943 74.889 25.7919 77.8397 25.7684C77.8277 26.7448 77.8301 27.7236 77.8325 28.7023C73.728 28.6695 69.6228 28.7094 65.5183 28.6812C65.5488 23.2307 65.5352 17.7771 65.5256 12.3258ZM81.0048 12.314C83.3003 12.3399 85.5958 12.307 87.8937 12.3305C89.5549 12.4166 91.3309 12.6977 92.6421 13.779C94.2037 15.0788 94.4398 17.3542 93.8818 19.1794C93.555 20.3813 92.5377 21.2505 91.4458 21.8064C92.6541 24.1006 93.8553 26.3972 95.0476 28.6992C93.7654 28.6875 92.4831 28.6851 91.2025 28.7016C90.1153 26.6532 89.1647 24.5313 87.9941 22.5299C86.8114 22.5808 85.6295 22.5487 84.4468 22.5534C84.4444 24.5994 84.4227 26.6446 84.4613 28.6906C83.3051 28.7047 82.1489 28.6835 80.9951 28.707C81.0168 23.2424 81 17.7771 81.0048 12.314ZM84.4492 15.1297C84.4276 16.6589 84.4541 18.1866 84.4324 19.7166C86.0173 19.6304 87.6601 19.9209 89.2073 19.5005C91.0692 19.0307 91.1238 15.9276 89.2619 15.4257C87.7082 14.9809 86.0486 15.1877 84.4492 15.1297ZM96.3057 28.689C98.5587 23.2401 100.735 17.759 102.988 12.3101C104.151 12.3313 105.317 12.3336 106.479 12.3078C108.725 17.7637 110.894 23.2471 113.159 28.6961C111.902 28.6914 110.649 28.6937 109.395 28.6867C108.932 27.4409 108.448 26.1991 107.983 24.9533C105.769 24.9486 103.554 24.9557 101.34 24.9486C100.87 26.1991 100.41 27.4542 99.9244 28.6984C98.7185 28.6773 97.5101 28.7078 96.3057 28.689ZM102.38 22.1541C103.903 22.1079 105.428 22.1079 106.951 22.1517C106.213 20.1034 105.433 18.0652 104.611 16.045C103.945 18.1098 103.071 20.0995 102.38 22.1541ZM121.01 12.3187C122.186 12.3211 123.365 12.3258 124.543 12.3187C126.77 17.7771 128.96 23.2487 131.208 28.7C129.954 28.6859 128.701 28.6882 127.449 28.6929C127.003 27.4401 126.497 26.2077 126.049 24.9549C123.833 24.9455 121.616 24.9525 119.399 24.9572C118.899 26.1936 118.467 27.4558 117.976 28.6976C116.77 28.6835 115.564 28.6859 114.357 28.7047C116.594 23.2495 118.801 17.7841 121.01 12.3187ZM120.412 22.1055C121.947 22.1658 123.485 22.0311 125.018 22.1588C124.269 20.0901 123.445 18.0464 122.675 15.9871C122 18.0535 121.185 20.0736 120.412 22.1055ZM6.05914 35.2115C14.3234 35.1833 22.5902 35.2091 30.8569 35.1974C30.8689 36.3179 30.8448 37.436 30.8641 38.5541C22.595 38.5471 14.3283 38.5659 6.05914 38.5447C6.07359 37.4344 6.07118 36.3226 6.05914 35.2115Z" fill="#232323"/>
</svg>
