<svg width="156" height="24" viewBox="0 0 156 24" fill="none" xmlns="http://www.w3.org/2000/svg">
<path d="M17.1566 14.1242C16.6778 13.3262 15.9596 12.6081 15.002 11.9697C14.0445 11.3313 12.4485 10.5333 10.2142 9.57576C7.42122 8.37879 5.58587 7.50101 4.86769 6.86263C4.22931 6.30404 3.91011 5.58586 3.91011 4.86768C3.91011 3.91011 4.3889 3.11212 5.34647 2.39394C6.30405 1.67576 7.58081 1.35655 9.09697 1.35655C10.5333 1.35655 11.8101 1.75556 12.8475 2.39394C13.8051 3.03232 14.7626 3.98989 15.2414 5.42625C15.2414 5.58585 15.401 5.66566 15.5606 5.66566C15.7202 5.66566 15.8798 5.58585 15.8798 5.42625L16.199 1.59596C15.401 1.11717 14.2838 0.638384 13.4859 0.39899C12.4485 0.159596 11.1717 0 9.73536 0C7.18183 0 5.10708 0.558591 3.51112 1.67576C1.99495 2.79293 1.19698 4.14948 1.19698 5.82524C1.19698 6.70302 1.43638 7.501 1.83537 8.21918C2.39395 9.09696 3.27173 9.89494 4.4687 10.6929C5.18688 11.1717 6.70303 11.8899 9.09697 12.9273C11.4909 13.9646 13.0869 14.9222 13.8051 15.6404C14.603 16.3586 14.9222 17.2363 14.9222 18.1141C14.9222 18.7525 14.6828 19.4707 14.1242 20.1091C13.6455 20.8273 12.9273 21.306 12.0495 21.705C11.1717 22.104 10.1343 22.2636 9.09697 22.2636C7.34142 22.2636 5.74546 21.705 4.3889 20.5879C3.03233 19.4707 2.15455 18.5131 1.91516 17.1566C1.91516 17.0768 1.91516 16.997 1.91516 16.9172C1.91516 16.6778 1.75557 16.5182 1.43638 16.5182C1.19698 16.5182 0.957584 16.6778 0.957584 16.9172C0.957584 17.0768 0.558594 21.4656 0.558594 21.4656C0.558594 21.705 0.638399 21.8646 0.877793 22.0242C1.11719 22.1838 1.75557 22.503 2.79294 22.7424C4.54849 23.2212 6.30405 23.4606 8.2192 23.4606C10.3737 23.4606 12.1293 23.1414 13.4859 22.6626C14.8424 22.104 15.8798 21.306 16.6778 20.1889C17.4758 19.0717 17.795 17.9545 17.795 16.6778C17.8748 15.8 17.6354 14.9222 17.1566 14.1242Z" fill="#232323"/>
<path d="M77.6429 10.1342C80.356 9.25642 82.2712 7.50088 82.2712 5.50593C82.2712 2.5534 78.2015 0.239258 73.254 0.239258H73.1742C71.5783 0.239258 69.4237 0.239258 68.6258 0.239258C66.551 0.319056 65.1944 0.398849 63.5187 0.558445L62.0823 0.638248C61.8429 0.638248 61.6035 0.797839 61.6035 0.957435C61.6035 1.19683 61.7631 1.35643 62.0025 1.43623L64.4763 1.91502C65.1944 2.07462 65.1944 2.47361 65.1146 3.11199V21.0665C65.1146 21.6251 64.6359 22.1837 63.9177 22.2635L62.0025 22.7423C61.7631 22.7423 61.5237 22.9817 61.6035 23.1413C61.6035 23.3807 61.8429 23.5403 62.0823 23.4605H74.451C80.1167 23.4605 84.745 20.4281 84.745 16.5978C84.745 13.5655 81.7126 11.012 77.6429 10.1342ZM72.2965 1.35642C73.8126 1.35642 75.0894 1.59584 76.1268 2.07463C76.2864 2.15442 80.3561 3.98977 77.7227 7.89987C77.6429 7.97967 76.2066 10.2938 71.2591 10.2938C70.4611 10.2938 69.5035 10.214 68.6258 10.1342V1.75541C69.1843 1.59582 70.6207 1.35642 72.2965 1.35642ZM79.7975 19.9494C79.7975 19.9494 78.2015 22.1039 73.7328 22.1837C73.7328 22.1837 73.5732 22.1837 73.4136 22.1837C72.3763 22.1837 68.945 22.0241 68.7056 19.71V11.6504C69.1843 11.5706 70.7005 11.411 72.3763 11.411C74.85 11.411 76.8449 11.7302 78.2813 12.4484C78.2813 12.4484 79.5581 13.1665 80.3561 14.4433C81.4732 16.1989 81.3136 18.0342 79.7975 19.9494Z" fill="#232323"/>
<path d="M121.852 22.5829L119.937 22.1041C119.218 22.0243 118.74 21.5455 118.74 20.9071V2.71321C118.74 2.15463 119.218 1.59604 119.937 1.51624L121.852 1.03745C122.091 1.03745 122.331 0.798052 122.251 0.558658C122.251 0.319264 122.011 0.159668 121.692 0.159668H118.66H115.069H112.037C111.797 0.159668 111.478 0.319264 111.478 0.558658C111.478 0.798052 111.638 0.957648 111.877 0.957648L113.792 1.43644C114.51 1.51624 114.989 1.99503 114.989 2.63341V11.092H100.067V2.55361C100.067 1.99502 100.546 1.59604 101.264 1.51624L103.179 1.03745C103.418 1.03745 103.658 0.798052 103.578 0.558658C103.578 0.319264 103.339 0.159668 103.019 0.159668H100.067H96.5558H93.5235C93.2841 0.159668 93.0447 0.319264 92.9649 0.558658C92.9649 0.798052 93.1245 0.957648 93.3639 0.957648L95.279 1.43644C95.9174 1.51624 96.3164 1.91524 96.476 2.39403V21.0667C96.3962 21.5455 95.9174 21.9445 95.279 22.0243L93.3639 22.5031C93.1245 22.5031 92.8851 22.7425 92.9649 22.9021C93.0447 23.1415 93.2043 23.3011 93.5235 23.3011H96.5558H100.147H103.099C103.339 23.3011 103.578 23.1415 103.658 22.9021C103.658 22.6627 103.498 22.5031 103.259 22.5031L101.344 22.0243C100.705 21.9445 100.226 21.5455 100.147 20.9869V12.4486H115.069V20.9071C115.069 21.4657 114.59 22.0243 113.872 22.1041L111.957 22.5829C111.717 22.5829 111.478 22.8223 111.558 22.9819C111.558 23.2213 111.797 23.3809 112.116 23.3809H115.149H118.74H121.772C122.011 23.3809 122.331 23.2213 122.331 22.9819C122.331 22.8223 122.091 22.5829 121.852 22.5829Z" fill="#232323"/>
<path d="M154.648 22.5827L153.211 22.1837C152.493 22.0241 151.935 21.6251 151.695 21.0665L142.12 0.239258H141.242L131.666 21.0665C131.427 21.6251 130.868 22.0241 130.15 22.1837L128.713 22.5827C128.474 22.5827 128.235 22.8221 128.314 23.0615C128.314 23.3009 128.554 23.4605 128.873 23.3807H135.975C136.214 23.3807 136.454 23.2211 136.534 23.0615C136.534 22.8221 136.374 22.6625 136.135 22.5827L134.379 22.1837C134.06 22.1039 133.741 21.9443 133.581 21.7049C133.422 21.4655 133.422 21.2261 133.581 20.9069L136.693 14.1241H145.311L148.264 20.5877C148.663 21.3857 148.025 22.0241 147.386 22.1039L145.391 22.5827C145.152 22.5827 144.912 22.8221 144.992 23.0615C144.992 23.3009 145.311 23.4605 145.551 23.3807H154.488C154.728 23.3807 154.967 23.2211 155.047 23.0615C155.127 22.8221 154.967 22.5827 154.648 22.5827ZM137.411 12.7675L141.082 4.70795L144.753 12.7675H137.411Z" fill="#232323"/>
<path d="M54.1037 11.5707C54.1037 10.2141 53.8643 8.85757 53.3057 7.501C52.9067 6.54343 52.3481 5.58585 51.5501 4.70808C50.433 3.43131 49.3158 2.55353 48.2784 1.91515C47.1613 1.27676 45.9643 0.877782 44.6077 0.478793C43.2512 0.159601 41.8946 0 40.4582 0C40.2986 0 40.139 0 39.8996 0C39.74 0 39.5006 0 39.341 0C37.9845 0 36.5481 0.159601 35.1916 0.478793C33.835 0.797985 32.638 1.27676 31.5209 1.91515C30.4037 2.47373 29.3663 3.43131 28.2491 4.70808C27.4512 5.58585 26.8926 6.46363 26.4936 7.501C26.0148 8.77777 25.7754 10.1343 25.7754 11.5707V11.8101V12.1293C25.7754 13.4858 26.0148 14.8424 26.4936 16.199C26.8926 17.2364 27.4512 18.1141 28.2491 18.9919C29.3663 20.2687 30.4037 21.1465 31.5209 21.7848C32.638 22.4232 33.835 22.8222 35.1916 23.2212C36.5481 23.5404 37.9047 23.7 39.341 23.7C39.5006 23.7 39.74 23.7 39.8996 23.7C40.0592 23.7 40.2986 23.7 40.4582 23.7C41.8946 23.7 43.2512 23.5404 44.6077 23.2212C45.9643 22.902 47.1613 22.4232 48.2784 21.7848C49.3956 21.2262 50.5128 20.2687 51.5501 18.9919C52.3481 18.1141 52.9067 17.2364 53.3057 16.199C53.7845 14.9222 54.1037 13.5656 54.1037 12.1293V11.8101V11.5707ZM50.433 11.8899C50.433 13.4859 50.1936 15.002 49.635 16.5182C49.236 17.7151 48.5178 18.7525 47.5602 19.6303C46.6027 20.5879 45.4855 21.2262 44.2087 21.7848C42.8522 22.2636 41.4956 22.5828 39.9794 22.5828C38.4633 22.5828 37.1067 22.3434 35.7501 21.7848C34.3936 21.306 33.2764 20.5879 32.3188 19.6303C31.3613 18.6727 30.7229 17.6353 30.3239 16.5182C29.7653 15.002 29.5259 13.4061 29.5259 11.8899V11.8101C29.5259 10.2141 29.7653 8.69797 30.3239 7.10201C30.7229 5.90504 31.4411 4.86768 32.3188 3.9899C33.2764 3.03232 34.3936 2.39393 35.7501 1.83534C37.1067 1.35656 38.4633 1.11717 39.9794 1.11717C41.4956 1.11717 42.8522 1.35656 44.2087 1.83534C45.5653 2.31413 46.6825 3.03232 47.5602 3.9899C48.5178 4.94747 49.1562 5.98484 49.635 7.10201C50.1936 8.61818 50.433 10.2141 50.433 11.8101V11.8899Z" fill="#232323"/>
</svg>
