<svg width="160" height="47" viewBox="0 0 160 47" fill="none" xmlns="http://www.w3.org/2000/svg">
<path d="M153.277 6.47842L153.35 6.33118H140.442C136.639 6.33118 133.399 7.11646 130.725 8.66247C128.05 10.233 126.136 12.3925 124.958 15.2146C124.222 17.006 124.001 18.6257 124.32 20.0981C124.688 21.6441 125.645 22.7238 127.166 23.4109C128.565 24.0244 130.896 24.3189 134.185 24.3189H145.841L146.995 21.4723H140.442C137.277 21.4723 135.166 21.0551 134.111 20.2453C132.958 19.3619 133.08 17.325 133.988 15.1655C135.559 11.4355 138.823 9.10419 143.363 9.10419H148.442L147.264 11.9017H151.142L153.399 6.50296H153.277V6.47842ZM108.074 17.1042L115.927 9.47228L117.547 17.1042H108.074ZM41.3013 17.1287L48.9577 9.81585L50.3319 17.1287H41.3013ZM115.264 6.30664L110.479 6.33118L92.0743 23.5582L99.2644 6.35572H91.3871L81.8657 13.8158L76.9577 17.8404H76.7368L79.0436 11.9754L76.2215 6.33118H68.2951L61.1049 23.5582L56.9332 6.33118H48.246L29.0804 24.2944H33.8657L38.7737 19.6073H50.8473L51.8043 24.2944H64.6387L69.2767 13.1778C69.5221 12.6134 69.743 11.9754 69.9638 11.2637C69.9884 11.8527 70.1356 12.4662 70.4301 13.1042L74.5037 22.3803H75.1908L86.8718 13.1533C87.3135 12.8097 87.9761 12.1717 88.8595 11.2637C88.4178 12.0981 88.0988 12.7361 87.9025 13.1778L83.2644 24.2944H91.7307H100.663L105.498 19.5827H118.037L119.044 24.2944H123.461L119.166 6.30664H115.264ZM31.2154 20.0735C32.7614 18.6011 33.8902 16.9815 34.651 15.1901C35.8289 12.3925 35.7307 10.2085 34.3565 8.63793C32.9822 7.09192 30.381 6.30664 26.5773 6.30664H13.6939L12.516 9.12873H21.3994C25.9393 9.12873 27.2399 11.3864 25.6694 15.1165C24.7614 17.276 23.9761 19.2637 22.0865 20.1471C20.3687 20.9569 18.5773 21.2023 15.4117 21.2023H11.3135L14.381 13.9385H10.5037L6.16016 24.2944H17.8411C21.1295 24.2944 23.7062 23.9999 25.6203 23.3864C27.7062 22.6993 29.5712 21.6195 31.2154 20.0735Z" fill="#232323"/>
<path d="M118.651 42.233V38.9937L121.203 34.6501H120.099L119.019 36.736C118.725 37.3005 118.479 37.8158 118.258 38.3066H118.234C117.988 37.7667 117.768 37.325 117.473 36.736L116.393 34.6501H115.289L117.694 39.0183V42.233H118.651ZM110.798 35.4354C110.945 35.3863 111.289 35.3373 111.755 35.3373C112.786 35.3373 113.498 35.779 113.498 36.7606C113.498 37.6195 112.835 38.2084 111.78 38.2084H110.774V35.4354H110.798ZM109.817 42.233H110.798V38.9446H111.731C112.614 38.9692 113.031 39.3618 113.252 40.417C113.473 41.3495 113.645 42.0121 113.768 42.233H114.774C114.626 41.9385 114.43 41.2023 114.185 40.1471C114.013 39.3618 113.645 38.8219 113.08 38.6256V38.6011C113.89 38.3311 114.504 37.6686 114.504 36.6624C114.504 36.0735 114.283 35.5581 113.915 35.2146C113.449 34.7974 112.761 34.6011 111.731 34.6011C111.068 34.6011 110.356 34.6501 109.841 34.7483V42.233H109.817ZM102.307 34.6501V39.1164C102.307 41.4722 103.485 42.3557 105.031 42.3557C106.676 42.3557 107.903 41.3986 107.903 39.0673V34.6501H106.921V39.141C106.921 40.8097 106.209 41.5704 105.08 41.5704C104.074 41.5704 103.314 40.8587 103.314 39.141V34.6501H102.307ZM100.958 42.233L98.6019 38.3311L100.909 34.6501H99.7798L98.7491 36.417C98.4792 36.9078 98.2829 37.2514 98.062 37.6931H98.0375C97.8411 37.3005 97.6203 36.9078 97.3504 36.417L96.3442 34.6501H95.2154L97.4485 38.4048L95.1418 42.233H96.2706L97.1786 40.5643C97.5712 39.9017 97.7921 39.4845 97.9884 39.0673H98.0129C98.2583 39.509 98.5037 39.9262 98.8964 40.5643L99.8534 42.233H100.958ZM88.1479 34.6501V39.1164C88.1479 41.4722 89.3258 42.3557 90.8718 42.3557C92.516 42.3557 93.743 41.3986 93.743 39.0673V34.6501H92.7614V39.141C92.7614 40.8097 92.0497 41.5704 90.9209 41.5704C89.9148 41.5704 89.154 40.8587 89.154 39.141V34.6501H88.1479ZM83.0436 42.233H87.2645V41.4232H84.0252V34.6747H83.0436V42.233ZM78.8227 37.8649H75.878V35.46H78.9945V34.6501H74.8964V42.233H79.1663V41.4232H75.878V38.6992H78.8227V37.8649ZM67.3381 34.6501V42.233H68.3197V38.6747H71.9761V42.233H72.9577V34.6501H71.9761V37.8158H68.3197V34.6501H67.3381ZM62.97 42.233H63.9516V35.4845H66.2583V34.6501H60.6387V35.4845H62.9454V42.233H62.97ZM57.7675 37.8649H54.8227V35.46H57.9393V34.6501H53.8411V42.233H58.1111V41.4232H54.8227V38.6992H57.7675V37.8649ZM50.0865 42.233L52.7859 34.6501H51.7307L50.4546 38.4048C50.1111 39.3864 49.7921 40.3434 49.5958 41.2268H49.5712C49.3749 40.3434 49.0804 39.4109 48.7614 38.4048L47.5835 34.6747H46.5283L49.0068 42.2575H50.0865V42.233ZM44.4178 42.233H45.3994V34.6501H44.4178V42.233ZM38.8964 42.233H43.1172V41.4232H39.878V34.6747H38.8964V42.233Z" fill="#232323"/>
</svg>
