<svg width="113" height="45" viewBox="0 0 113 45" fill="none" xmlns="http://www.w3.org/2000/svg">
<path d="M3.23444 17.6632C3.23444 16.6643 2.92328 15.7288 2.34259 14.9004C1.75397 14.0581 0.963198 13.4814 0 13.1345C0.505381 12.9403 1.03653 12.8472 1.6192 12.8472C3.10562 12.8472 4.33637 13.414 5.32335 14.5615C6.58978 13.414 8.06034 12.8472 9.74494 12.8472C11.709 12.8472 13.3322 13.5745 14.6462 15.0312C14.6917 14.9698 14.7789 14.8687 14.9256 14.73C16.1742 13.4814 17.7101 12.8472 19.5256 12.8472C21.3311 12.8472 22.8631 13.4695 24.1334 14.726C25.4256 15.9686 26.04 17.4808 26.04 19.2645V30.5078C26.04 31.5839 25.5069 32.129 24.4248 32.129C23.3328 32.129 22.7877 31.5839 22.7877 30.5078V19.2526C22.7877 18.3588 22.4667 17.5958 21.8582 16.9873C21.2161 16.367 20.4392 16.0598 19.5414 16.0598C18.6179 16.0598 17.8509 16.367 17.2226 16.9873C16.6023 17.5958 16.2891 18.3588 16.2891 19.2526V30.4206H16.2852C16.2891 30.4523 16.2891 30.4761 16.2891 30.5078C16.2891 30.7971 16.194 31.0726 16.0533 31.3322C15.7402 31.8673 15.2665 32.129 14.6561 32.129C13.568 32.129 13.0269 31.5839 13.0269 30.5078V19.2526C13.0269 18.3588 12.7039 17.5958 12.0895 16.9873C11.4434 16.367 10.6764 16.0598 9.7608 16.0598C8.85507 16.0598 8.08214 16.367 7.45388 16.9873C6.82166 17.5958 6.49266 18.3588 6.49266 19.2526V30.5078C6.49266 31.5839 5.94765 32.129 4.86157 32.129C3.78144 32.129 3.23444 31.5839 3.23444 30.5078V17.6632Z" fill="#232323"/>
<path d="M33.52 25.6997V27.2892C33.52 28.3237 33.8074 29.2572 34.4099 30.0836C35.0084 30.92 35.7913 31.5066 36.7822 31.8297C36.2312 32.0318 35.6803 32.129 35.1551 32.129C33.7876 32.129 32.6341 31.6573 31.6808 30.7178C30.7374 29.7784 30.2697 28.6349 30.2697 27.2892V19.2645C30.2697 17.4808 30.89 15.9548 32.1684 14.7201C33.4407 13.4695 34.9589 12.8472 36.7822 12.8472C38.5857 12.8472 40.1237 13.4695 41.3941 14.726C42.6664 15.9686 43.3165 17.4808 43.3165 19.2645V22.4752C43.3165 23.3829 42.9994 24.1419 42.3553 24.7543C41.727 25.3767 40.9501 25.6997 40.0483 25.6997H33.52ZM40.0483 19.2526C40.0483 18.3588 39.7293 17.5958 39.101 16.9873C38.4648 16.367 37.6939 16.0598 36.7822 16.0598C35.8586 16.0598 35.1035 16.367 34.4555 16.9873C33.8312 17.5958 33.52 18.3588 33.52 19.2526V22.5743C33.52 23.5949 34.0373 24.1162 35.0817 24.1162H38.4926C39.5192 24.1162 40.0483 23.5949 40.0483 22.5743V19.2526Z" fill="#232323"/>
<mask id="mask0_1_1321" style="mask-type:luminance" maskUnits="userSpaceOnUse" x="46" y="12" width="15" height="33">
<path d="M46.6804 12.5547H60.3792V45.0002H46.6804V12.5547Z" fill="white"/>
</mask>
<g mask="url(#mask0_1_1321)">
<path d="M47.1121 14.4476C47.1121 13.3853 47.6531 12.8462 48.7352 12.8462C49.8193 12.8462 50.3485 13.3853 50.3485 14.4535V25.6987C50.3485 26.6045 50.6676 27.3734 51.2899 27.9819C51.9221 28.6002 52.7109 28.9054 53.6206 28.9054C54.5223 28.9054 55.3012 28.6002 55.9434 27.9819C56.5736 27.3615 56.8867 26.6025 56.8867 25.6987V14.4535C56.8867 13.3853 57.4199 12.8462 58.5099 12.8462C59.596 12.8462 60.141 13.3853 60.141 14.4476C60.141 14.4892 60.141 14.5169 60.135 14.5407H60.141V40.1705C60.141 41.5063 59.6634 42.6439 58.7101 43.5912C57.7588 44.5247 56.5974 45.0003 55.2457 45.0003C54.7126 45.0003 54.1676 44.9072 53.6206 44.7169C54.5858 44.3562 55.3746 43.7775 55.983 42.9412C56.5776 42.1226 56.8867 41.1951 56.8867 40.1705V31.246C55.8819 31.8247 54.7919 32.128 53.6206 32.128C51.8091 32.128 50.2633 31.4918 49.0028 30.2452C47.7423 29.0006 47.1121 27.4765 47.1121 25.6987V14.4476Z" fill="#232323"/>
</g>
<path d="M77.4269 25.6991C77.4269 27.4769 76.8006 29.001 75.5262 30.2456C74.2658 31.4922 72.7219 32.1284 70.9065 32.1284C69.101 32.1284 67.5591 31.4922 66.2867 30.2456C65.0282 29.001 64.3979 27.4769 64.3979 25.6991V19.2639C64.3979 17.4802 65.0282 15.9542 66.2867 14.7195C67.5591 13.4689 69.101 12.8466 70.9065 12.8466C72.0778 12.8466 73.1519 13.134 74.1687 13.7067V4.81995C74.1687 3.79928 73.8615 2.87968 73.261 2.04134C72.6902 1.22084 71.8756 0.63024 70.9065 0.275482C71.4277 0.103058 71.9608 0 72.5277 0C73.8852 0 75.0328 0.479617 75.986 1.41507C76.9552 2.34259 77.4269 3.48019 77.4269 4.81995V25.6991ZM70.9065 16.0592C69.9948 16.0592 69.2298 16.3664 68.5956 16.9868C67.9614 17.6011 67.6522 18.3582 67.6522 19.2639V25.6991C67.6522 26.6049 67.9614 27.3738 68.5936 27.9823C69.21 28.6006 69.9809 28.9058 70.9065 28.9058C71.8241 28.9058 72.603 28.6006 73.2174 27.9823C73.8575 27.3619 74.1687 26.6029 74.1687 25.6991V19.2639C74.1687 18.3582 73.8575 17.6011 73.2174 16.9868C72.603 16.3664 71.8241 16.0592 70.9065 16.0592Z" fill="#232323"/>
<path d="M94.6473 27.2892C94.6473 28.3297 94.9347 29.2572 95.5412 30.0936C96.1218 30.92 96.9067 31.5066 97.8837 31.8297C97.3328 32.0318 96.7838 32.129 96.2645 32.129C94.7464 32.129 93.5117 31.5522 92.5406 30.3988C91.2722 31.5522 89.8076 32.129 88.1269 32.129C86.3036 32.129 84.7716 31.4928 83.5131 30.2462C82.2367 29.0015 81.6025 27.4775 81.6025 25.6997V19.2645C81.6025 17.4808 82.2367 15.9548 83.5131 14.7201C84.7716 13.4695 86.3036 12.8472 88.1269 12.8472C89.9364 12.8472 91.4743 13.4695 92.7407 14.726C94.0111 15.9686 94.6473 17.4808 94.6473 19.2645V27.2892ZM88.1269 16.0598C87.2212 16.0598 86.4403 16.367 85.818 16.9873C85.1699 17.6017 84.8568 18.3588 84.8568 19.2645V25.6997C84.8568 26.6054 85.1699 27.3744 85.818 27.9828C86.4304 28.6012 87.2093 28.9064 88.1269 28.9064C89.0346 28.9064 89.8155 28.6012 90.4418 27.9828C91.072 27.3625 91.3832 26.6034 91.3832 25.6997V19.2645C91.3832 18.3588 91.072 17.6017 90.4418 16.9873C89.8155 16.367 89.0346 16.0598 88.1269 16.0598Z" fill="#232323"/>
<mask id="mask1_1_1321" style="mask-type:luminance" maskUnits="userSpaceOnUse" x="96" y="12" width="17" height="21">
<path d="M96.3977 12.5547H112.796V32.3419H96.3977V12.5547Z" fill="white"/>
</mask>
<g mask="url(#mask1_1_1321)">
<path d="M99.7648 17.6627C99.7648 16.6638 99.4636 15.7283 98.8591 14.8999C98.2745 14.0576 97.4877 13.4809 96.5383 13.1341C97.0417 12.9398 97.5729 12.8467 98.1516 12.8467C99.6321 12.8467 100.877 13.4135 101.858 14.561C103.116 13.4135 104.585 12.8467 106.277 12.8467C108.081 12.8467 109.613 13.469 110.901 14.7255C112.154 15.9682 112.798 17.4803 112.798 19.264V30.428H112.778C112.798 30.4518 112.798 30.4756 112.798 30.5073C112.798 31.5834 112.245 32.1285 111.153 32.1285C110.075 32.1285 109.538 31.5834 109.538 30.5073V19.2521C109.538 18.3583 109.222 17.5953 108.586 16.9868C107.956 16.3665 107.195 16.0593 106.277 16.0593C105.366 16.0593 104.595 16.3665 103.97 16.9868C103.336 17.5953 103.013 18.3583 103.013 19.2521V30.5073C103.013 31.5834 102.468 32.1285 101.39 32.1285C100.302 32.1285 99.7648 31.5834 99.7648 30.5073V17.6627Z" fill="#232323"/>
</g>
</svg>
