<svg width="22" height="20" viewBox="0 0 22 20" fill="none" xmlns="http://www.w3.org/2000/svg">
<path d="M3.52539 8C3.52539 8.27614 3.74925 8.5 4.02539 8.5C4.30153 8.5 4.52539 8.27614 4.52539 8H3.52539ZM7.02539 1V0.5V1ZM18.0254 4H18.5254H18.0254ZM17.5254 8C17.5254 8.27614 17.7492 8.5 18.0254 8.5C18.3015 8.5 18.5254 8.27614 18.5254 8H17.5254ZM14.5254 13C14.5254 13.2761 14.7492 13.5 15.0254 13.5C15.3015 13.5 15.5254 13.2761 15.5254 13H14.5254ZM18.0254 14V13.5C17.7493 13.5 17.5254 13.7239 17.5254 14H18.0254ZM18.0254 17V17.5C18.3015 17.5 18.5254 17.2761 18.5254 17H18.0254ZM4.02539 17H3.52539C3.52539 17.2761 3.74925 17.5 4.02539 17.5V17ZM4.02539 14H4.52539C4.52539 13.7239 4.30153 13.5 4.02539 13.5V14ZM6.52539 13C6.52539 13.2761 6.74925 13.5 7.02539 13.5C7.30153 13.5 7.52539 13.2761 7.52539 13H6.52539ZM7.02539 9.5C6.74925 9.5 6.52539 9.72386 6.52539 10C6.52539 10.2761 6.74925 10.5 7.02539 10.5V9.5ZM15.0254 10.5C15.3015 10.5 15.5254 10.2761 15.5254 10C15.5254 9.72386 15.3015 9.5 15.0254 9.5V10.5ZM6.52539 17C6.52539 16.7239 6.30153 16.5 6.02539 16.5C5.74925 16.5 5.52539 16.7239 5.52539 17H6.52539ZM5.52539 19C5.52539 19.2761 5.74925 19.5 6.02539 19.5C6.30153 19.5 6.52539 19.2761 6.52539 19H5.52539ZM16.5254 17C16.5254 16.7239 16.3015 16.5 16.0254 16.5C15.7492 16.5 15.5254 16.7239 15.5254 17H16.5254ZM15.5254 19C15.5254 19.2761 15.7492 19.5 16.0254 19.5C16.3015 19.5 16.5254 19.2761 16.5254 19H15.5254ZM4.52539 8V4H3.52539V8H4.52539ZM4.52539 4C4.52539 3.33696 4.78878 2.70107 5.25762 2.23223L4.55052 1.52513C3.89414 2.1815 3.52539 3.07174 3.52539 4H4.52539ZM5.25762 2.23223C5.72646 1.76339 6.36235 1.5 7.02539 1.5V0.5C6.09713 0.5 5.20689 0.868749 4.55052 1.52513L5.25762 2.23223ZM7.02539 1.5H15.0254V0.5H7.02539V1.5ZM15.0254 1.5C15.6884 1.5 16.3243 1.76339 16.7932 2.23223L17.5003 1.52513C16.8439 0.868749 15.9536 0.5 15.0254 0.5V1.5ZM16.7932 2.23223C17.262 2.70107 17.5254 3.33696 17.5254 4H18.5254C18.5254 3.07174 18.1566 2.1815 17.5003 1.52513L16.7932 2.23223ZM17.5254 4V8H18.5254V4H17.5254ZM15.5254 13V11H14.5254V13H15.5254ZM15.5254 11C15.5254 10.5055 15.672 10.0222 15.9467 9.61108L15.1152 9.05551C14.7307 9.63108 14.5254 10.3078 14.5254 11H15.5254ZM15.9467 9.61108C16.2214 9.19995 16.6119 8.87952 17.0687 8.6903L16.686 7.76642C16.0465 8.03133 15.4998 8.47993 15.1152 9.05551L15.9467 9.61108ZM17.0687 8.6903C17.5255 8.50108 18.0282 8.45157 18.5131 8.54804L18.7082 7.56725C18.0293 7.4322 17.3255 7.50152 16.686 7.76642L17.0687 8.6903ZM18.5131 8.54804C18.9981 8.6445 19.4435 8.8826 19.7932 9.23223L20.5003 8.52513C20.0108 8.03564 19.3871 7.7023 18.7082 7.56725L18.5131 8.54804ZM19.7932 9.23223C20.1428 9.58187 20.3809 10.0273 20.4774 10.5123L21.4581 10.3172C21.3231 9.63825 20.9897 9.01461 20.5003 8.52513L19.7932 9.23223ZM20.4774 10.5123C20.5738 10.9972 20.5243 11.4999 20.3351 11.9567L21.259 12.3394C21.5239 11.6999 21.5932 10.9961 21.4581 10.3172L20.4774 10.5123ZM20.3351 11.9567C20.1459 12.4135 19.8254 12.804 19.4143 13.0787L19.9699 13.9101C20.5455 13.5256 20.9941 12.9789 21.259 12.3394L20.3351 11.9567ZM19.4143 13.0787C19.0032 13.3534 18.5198 13.5 18.0254 13.5V14.5C18.7176 14.5 19.3943 14.2947 19.9699 13.9101L19.4143 13.0787ZM17.5254 14V17H18.5254V14H17.5254ZM18.0254 16.5H4.02539V17.5H18.0254V16.5ZM4.52539 17V14H3.52539V17H4.52539ZM4.02539 13.5C3.53094 13.5 3.04759 13.3534 2.63647 13.0787L2.0809 13.9101C2.65647 14.2947 3.33316 14.5 4.02539 14.5V13.5ZM2.63647 13.0787C2.22534 12.804 1.90491 12.4135 1.71569 11.9567L0.791814 12.3394C1.05672 12.9789 1.50532 13.5256 2.0809 13.9101L2.63647 13.0787ZM1.71569 11.9567C1.52647 11.4999 1.47697 10.9972 1.57343 10.5123L0.592643 10.3172C0.457595 10.9961 0.526907 11.6999 0.791814 12.3394L1.71569 11.9567ZM1.57343 10.5123C1.66989 10.0273 1.90799 9.58187 2.25763 9.23223L1.55052 8.52513C1.06103 9.01461 0.727692 9.63825 0.592643 10.3172L1.57343 10.5123ZM2.25763 9.23223C2.60726 8.8826 3.05271 8.6445 3.53767 8.54804L3.34258 7.56725C2.66364 7.7023 2.04 8.03564 1.55052 8.52513L2.25763 9.23223ZM3.53767 8.54804C4.02262 8.45157 4.52529 8.50108 4.9821 8.6903L5.36478 7.76642C4.72524 7.50152 4.02151 7.4322 3.34258 7.56725L3.53767 8.54804ZM4.9821 8.6903C5.43892 8.87952 5.82936 9.19995 6.10407 9.61108L6.93554 9.05551C6.55095 8.47993 6.00433 8.03133 5.36478 7.76642L4.9821 8.6903ZM6.10407 9.61108C6.37877 10.0222 6.52539 10.5055 6.52539 11H7.52539C7.52539 10.3078 7.32012 9.63108 6.93554 9.05551L6.10407 9.61108ZM6.52539 11V13H7.52539V11H6.52539ZM7.02539 10.5H15.0254V9.5H7.02539V10.5ZM5.52539 17V19H6.52539V17H5.52539ZM15.5254 17V19H16.5254V17H15.5254Z" fill="#232323"/>
</svg>
