<svg width="19" height="20" viewBox="0 0 19 20" fill="none" xmlns="http://www.w3.org/2000/svg">
<path d="M3 1V0.5V1ZM13 1V0.5V1ZM1 5H0.5H1ZM15 3.5C14.7239 3.5 14.5 3.72386 14.5 4C14.5 4.27614 14.7239 4.5 15 4.5V3.5ZM16 4V3.5V4ZM13 11V11.5V11ZM8 11V10.5C7.72386 10.5 7.5 10.7239 7.5 11H8ZM7.5 13C7.5 13.2761 7.72386 13.5 8 13.5C8.27614 13.5 8.5 13.2761 8.5 13H7.5ZM1.5 3C1.5 2.60218 1.65804 2.22064 1.93934 1.93934L1.23223 1.23223C0.763392 1.70107 0.5 2.33696 0.5 3H1.5ZM1.93934 1.93934C2.22064 1.65804 2.60218 1.5 3 1.5V0.5C2.33696 0.5 1.70107 0.763392 1.23223 1.23223L1.93934 1.93934ZM3 1.5H13V0.5H3V1.5ZM13 1.5C13.3978 1.5 13.7794 1.65804 14.0607 1.93934L14.7678 1.23223C14.2989 0.763392 13.663 0.5 13 0.5V1.5ZM14.0607 1.93934C14.342 2.22064 14.5 2.60218 14.5 3H15.5C15.5 2.33696 15.2366 1.70107 14.7678 1.23223L14.0607 1.93934ZM14.5 3V5H15.5V3H14.5ZM14.5 5C14.5 5.39782 14.342 5.77936 14.0607 6.06066L14.7678 6.76777C15.2366 6.29893 15.5 5.66304 15.5 5H14.5ZM14.0607 6.06066C13.7794 6.34196 13.3978 6.5 13 6.5V7.5C13.663 7.5 14.2989 7.23661 14.7678 6.76777L14.0607 6.06066ZM13 6.5H3V7.5H13V6.5ZM3 6.5C2.60218 6.5 2.22064 6.34196 1.93934 6.06066L1.23223 6.76777C1.70107 7.23661 2.33696 7.5 3 7.5V6.5ZM1.93934 6.06066C1.65804 5.77936 1.5 5.39782 1.5 5H0.5C0.5 5.66304 0.763392 6.29893 1.23223 6.76777L1.93934 6.06066ZM1.5 5V3H0.5V5H1.5ZM15 4.5H16V3.5H15V4.5ZM16 4.5C16.3978 4.5 16.7794 4.65804 17.0607 4.93934L17.7678 4.23223C17.2989 3.76339 16.663 3.5 16 3.5V4.5ZM17.0607 4.93934C17.342 5.22064 17.5 5.60218 17.5 6H18.5C18.5 5.33696 18.2366 4.70107 17.7678 4.23223L17.0607 4.93934ZM17.5 6C17.5 7.19347 17.0259 8.33807 16.182 9.18198L16.8891 9.88909C17.9205 8.85764 18.5 7.45869 18.5 6H17.5ZM16.182 9.18198C15.3381 10.0259 14.1935 10.5 13 10.5V11.5C14.4587 11.5 15.8576 10.9205 16.8891 9.88909L16.182 9.18198ZM13 10.5H8V11.5H13V10.5ZM7.5 11V13H8.5V11H7.5ZM6.5 14C6.5 13.8674 6.55268 13.7402 6.64645 13.6464L5.93934 12.9393C5.65804 13.2206 5.5 13.6022 5.5 14H6.5ZM6.64645 13.6464C6.74022 13.5527 6.86739 13.5 7 13.5V12.5C6.60217 12.5 6.22064 12.658 5.93934 12.9393L6.64645 13.6464ZM7 13.5H9V12.5H7V13.5ZM9 13.5C9.13261 13.5 9.25978 13.5527 9.35355 13.6464L10.0607 12.9393C9.77936 12.658 9.39783 12.5 9 12.5V13.5ZM9.35355 13.6464C9.44732 13.7402 9.5 13.8674 9.5 14H10.5C10.5 13.6022 10.342 13.2206 10.0607 12.9393L9.35355 13.6464ZM9.5 14V18H10.5V14H9.5ZM9.5 18C9.5 18.1326 9.44732 18.2598 9.35355 18.3536L10.0607 19.0607C10.342 18.7794 10.5 18.3978 10.5 18H9.5ZM9.35355 18.3536C9.25979 18.4473 9.13261 18.5 9 18.5V19.5C9.39782 19.5 9.77936 19.342 10.0607 19.0607L9.35355 18.3536ZM9 18.5H7V19.5H9V18.5ZM7 18.5C6.86739 18.5 6.74021 18.4473 6.64645 18.3536L5.93934 19.0607C6.22065 19.342 6.60218 19.5 7 19.5V18.5ZM6.64645 18.3536C6.55268 18.2598 6.5 18.1326 6.5 18H5.5C5.5 18.3978 5.65804 18.7794 5.93934 19.0607L6.64645 18.3536ZM6.5 18V14H5.5V18H6.5Z" fill="#232323"/>
</svg>
